<svg viewBox="0 0 2093 537.4" xmlns="http://www.w3.org/2000/svg" xmlns:xlink="http://www.w3.org/1999/xlink"><linearGradient id="a" gradientTransform="matrix(1 0 0 -1 0 540)" gradientUnits="userSpaceOnUse" x1="67.5" x2="343" y1="171.5" y2="447"><stop offset="0" stop-color="#fff"/><stop offset=".9" stop-color="#e22d8c"/></linearGradient><g fill="#fff"><path d="m564.1 77.4c0-.6 0-1.3.3-2.1.4-1.6 1.2-2.8 2.2-3.6s2.3-1.2 3.7-1.2h79.6c15.8.4 30.5 4.1 44.3 11.1s25.8 16.7 36.2 29 18.3 26.4 23.8 41.9c5.5 15.6 8.2 32 8.2 49.4s-2.7 33.6-8.2 49.2c-5.5 15.7-13.4 29.7-23.8 42.1s-22.5 22.1-36.2 29c-13.8 7-28.6 10.7-44.6 11.1h-79.3c-1.4 0-2.7-.4-3.7-1.2-1.1-.8-1.8-2-2.2-3.6-.2-.8-.3-1.6-.3-2.4 0-2 1.1-3.6 3.3-4.8 3.2-2 6-4.3 8.4-6.9 2.2-2.8 4-6 5.4-9.6s2.2-7.1 2.4-10.5v-184.9c-.2-3.4-1-6.9-2.4-10.5s-3.2-6.8-5.4-9.6c-2.4-2.6-5.2-4.9-8.4-6.9-2.2-1.2-3.3-2.9-3.3-5.1zm151.1 81c-3.3-13.3-8.1-24.9-14.5-34.9-6.2-9.8-13.7-17.7-22.6-23.7s-18.8-9.8-29.8-11.4c-3-.6-6.2-.9-9.6-.9h-5.1c-1.8 0-3.5.2-5.1.6-1.4.8-2.1 1.9-2.1 3.3v221c0 1.2.7 2.3 2.1 3.3 1.6.4 3.3.6 5.1.6h5.1c3.4 0 6.6-.3 9.6-.9 11-1.6 20.9-5.4 29.8-11.4s16.4-13.9 22.6-23.6c6.4-10 11.2-21.6 14.5-34.9s4.9-27.8 4.9-43.6-1.7-30.3-4.9-43.6z"/><path d="m773.7 105.8c0-.6 0-1.3.3-2.1.8-3.2 2.8-4.8 6-4.8h128.8c1.8 0 3.3.7 4.5 1.9 1.2 1.3 1.8 2.8 1.8 4.6v30.8c0 1.6-.5 2.9-1.3 4-.9 1.1-2.2 1.9-3.7 2.2h-1.5c-2.4 0-4.3-1.2-5.7-3.6-1.4-3-3.2-6.1-5.4-9.3-5-6.6-10.5-10.5-16.5-11.7h-44.3c-2 0-3.3 0-4 .2-.7 0-1.2.3-1.7.8-.4.8-.6 1.3-.6 1.5v83.8c0 .4.3.9.9 1.5l1.2.6c.4.2.8.3 1.2.3h32.9c.4-.2.8-.3 1.2-.3s.8-.1 1.2-.3h.3c.4 0 .7-.1.9-.3 8.2-1.8 14.1-5.6 17.7-11.4 1.4-2 3-3 4.8-3s1.6.1 2.4.3c3 1 4.5 3.1 4.5 6.3v36.5c0 3.2-1.5 5.3-4.5 6.3-.8.2-1.5.3-2.1.3-2.2 0-3.9-1-5.1-3-3.6-5.6-9.5-9.5-17.7-11.7h-1.2c-.4-.2-.8-.3-1.2-.3s-.8-.1-1.2-.3h-1.5c-.2-.2-.5-.3-.9-.3h-30.2c-1 0-1.8.2-2.5.8-.7.5-1 1.1-1 1.9v83.8c0 .8.3 1.5 1 2s1.5.8 2.5.8h62.6c5-.2 10.1-2.2 15.3-6s9.8-8.9 13.8-15.3c.8-1.4 1.9-2.4 3.3-3 .6-.2 1.3-.3 2.1-.3s1.6.2 2.4.6c1.4.4 2.5 1.2 3.3 2.4.6 1 .9 2 .9 3s0 .9-.3 1.5l-4.8 30.2c-.4 2.4-1.7 4.1-3.9 5.1-.4.2-1.2.3-2.4.3h-146.1c-1.4 0-2.7-.4-3.7-1.2-1.1-.8-1.8-2-2.2-3.6-.2-.8-.3-1.6-.3-2.4 0-2 1.1-3.6 3.3-4.8 2.6-1.4 5-3.4 7.2-6 2-2.4 3.6-5.1 4.8-8.2s1.8-6.1 1.8-9.1v-163.8c0-3-.6-6-1.8-9.1s-2.8-5.8-4.8-8.2c-2.2-2.6-4.6-4.6-7.2-6-2.2-1.2-3.3-2.9-3.3-5.1z"/><path d="m975.5 125.1c-1.2-3.1-2.8-5.8-4.8-8.2-2.2-2.6-4.6-4.6-7.2-6-2.2-1.2-3.3-2.9-3.3-5.1s0-1.3.3-2.1c.8-3.2 2.8-4.8 6-4.8h61.1c3.2 0 5.3 1.6 6.3 4.8.2.6.3 1.2.3 1.8 0 2.2-1.1 4-3.3 5.4-2.6 1.4-5 3.4-7.2 6-2.2 2.4-3.8 5.2-4.9 8.4s-1.8 6.2-2 9v163.8c.2 3 .8 6 2 9.1s2.7 5.8 4.9 8.2c2.2 2.6 4.6 4.6 7.2 6 2.2 1.2 3.3 3 3.3 5.4s0 1.2-.3 1.8c-1 3.2-3.1 4.8-6.3 4.8h-61.1c-1.4 0-2.7-.4-3.7-1.2-1.1-.8-1.8-2-2.2-3.6-.2-.8-.3-1.6-.3-2.4 0-2 1.1-3.6 3.3-4.8 2.6-1.4 5-3.4 7.2-6 2-2.4 3.6-5.1 4.8-8.2s1.8-6.1 1.8-9.1v-163.8c0-3-.6-6-1.8-9.1z"/><path d="m1275.8 105.8c0 2.2-1.1 3.9-3.3 5.1-6 3.4-10.1 8.7-12.3 15.9v.9h-.3v.3c0 .4 0 .8-.2 1.1s-.2.6-.2 1.1 0 .6-.2.8-.2.2-.2.4v2.4c-.2.2-.3.5-.3.9v192.2c0 1.8-.6 3.3-1.8 4.6s-2.7 2-4.5 2h-8.4c-2 0-3.7-.9-5.1-2.7l-139.8-181.1v150.3c0 .4 0 .7.3.9v1.2c.2.4.3.8.3 1.2s0 .8.3 1.2c0 .4 0 .7.3.9 1 3.6 2.5 6.7 4.6 9.4s4.5 4.8 7.3 6.4c2.4 1.4 3.6 3.3 3.6 5.7s0 1.2-.3 1.8c-1 3.2-3.1 4.8-6.3 4.8h-39.5c-3.2 0-5.2-1.6-6-4.8-.2-.8-.3-1.6-.3-2.4 0-2.2 1.1-3.9 3.3-5.1 6-3.4 10.1-8.7 12.3-15.9v-.9h.3c0-.4 0-.8.2-1.2 0-.4.2-.8.2-1.2s0-.4.2-.5.2-.4.2-.8v-2.4c.2-.2.3-.5.3-.9v-163.8h-.3v-2.4c0-.2 0-.4-.2-.6 0-.2-.2-.4-.2-.6 0-.4 0-.8-.2-1.1s-.2-.6-.2-1.1v-.3c-.2-.2-.3-.5-.3-.9-.4-1.4-.9-2.7-1.5-3.9l-1.8-3.6-3-3.9c-1.6-1.6-3.6-3.1-6-4.5-1.2-.8-2.1-1.9-2.7-3.3-.4-.6-.6-1.3-.6-2.1s0-1.2.3-1.8c.4-1.6 1.2-2.8 2.2-3.6s2.4-1.2 4-1.2h35.6c2.2 0 3.9.8 5.1 2.4l129 167.4v-136.5c0-.4 0-.7-.3-.9v-1.2c-.2-.4-.3-.8-.3-1.2s0-.5-.3-.9v-.3c0-.4 0-.7-.3-.9-1-3.6-2.5-6.7-4.6-9.4s-4.5-4.8-7.3-6.4c-2.4-1.2-3.6-3-3.6-5.4s0-1.2.3-1.8c1-3.2 3.1-4.8 6.3-4.8h39.5c1.4 0 2.6.4 3.7 1.2s1.8 2 2.2 3.6c.2.8.3 1.5.3 2.1z"/><path d="m1606.2 333.1h-10.8c-3 0-5-1.4-6-4.2l-53.3-153.3-53 153.3c-1 2.8-3 4.2-6 4.2h-11.1c-3 0-5-1.4-6-4.2l-76.1-219.5c-.8-2-1.7-4.3-2.5-6.9-.9-2.6-2.1-5.1-3.4-7.6s-3.1-4.8-5.1-7-4.4-4.1-7.2-5.7c-2.2-1.2-3.3-2.9-3.3-5.1s0-1.3.3-2.1c.8-3.2 2.8-4.8 6-4.8h61.4c3.2 0 5.3 1.6 6.3 4.8.2.8.3 1.5.3 2.1 0 2-1 3.7-3 5.1-2.8 1.8-4.7 3.9-5.8 6.3s-1.8 4.6-1.9 6.6v2.1c0 1.4 0 2.5.3 3.3.4 1.6.6 2.5.6 2.7l56.9 163.8 41.9-121.3-12.3-36.2c-.8-2-1.7-4.3-2.7-6.9s-2.2-5.1-3.6-7.6-3.1-4.8-5.1-7-4.4-4.1-7.2-5.7c-2.2-1.4-3.3-3.2-3.3-5.4s0-1.2.3-1.8c1-3.2 3.1-4.8 6.3-4.8h61.4c3.2 0 5.3 1.6 6.3 4.8.2.6.3 1.2.3 1.8 0 2.2-1.1 4-3.3 5.4-3.8 2.2-6.1 5.5-6.9 9.9-.4 2-.6 3.8-.6 5.4s.3 4.1.9 5.7l56.9 163.8 54.8-158.4c.4-1.2.9-2.8 1.5-4.9s1.1-4.3 1.5-6.7v-7.2c-.4-2.4-1.3-4.5-2.7-6.3l-1.8-1.8c-1.6-1.4-2.4-2.9-2.4-4.5s.2-1.7.6-2.7c1-2.8 3-4.2 6-4.2h34.1c3.2 0 5.2 1.6 6 4.8.2.8.3 1.5.3 2.1 0 2.2-1.1 3.9-3.3 5.1-.4.4-.8.7-1.1.8s-.7.3-1.1.8c-7 5-12.8 13.6-17.4 25.8l-76.1 219.5c-1 2.8-3 4.2-6 4.2z"/><path d="m1724.2 105.8c0-.6 0-1.3.3-2.1.8-3.2 2.8-4.8 6-4.8h128.8c1.8 0 3.3.7 4.5 1.9 1.2 1.3 1.8 2.8 1.8 4.6v30.8c0 1.6-.4 2.9-1.3 4s-2.2 1.9-3.7 2.2h-1.5c-2.4 0-4.3-1.2-5.7-3.6-1.4-3-3.2-6.1-5.4-9.3-5-6.6-10.5-10.5-16.5-11.7h-44.3c-2 0-3.3 0-4 .2-.7 0-1.2.3-1.7.8-.4.8-.6 1.3-.6 1.5v83.8c0 .4.3.9.9 1.5l1.2.6c.4.2.8.3 1.2.3h32.9c.4-.2.8-.3 1.2-.3s.8-.1 1.2-.3h.3c.4 0 .7-.1.9-.3 8.2-1.8 14.1-5.6 17.7-11.4 1.4-2 3-3 4.8-3s1.6.1 2.4.3c3 1 4.5 3.1 4.5 6.3v36.5c0 3.2-1.5 5.3-4.5 6.3-.8.2-1.5.3-2.1.3-2.2 0-3.9-1-5.1-3-3.6-5.6-9.5-9.5-17.7-11.7h-1.2c-.4-.2-.8-.3-1.2-.3s-.8-.1-1.2-.3h-1.5c-.2-.2-.5-.3-.9-.3h-30.2c-1 0-1.8.2-2.5.8-.7.5-1.1 1.1-1.1 1.9v83.8c0 .8.3 1.5 1.1 2 .7.5 1.6.8 2.5.8h62.6c5-.2 10.1-2.2 15.3-6s9.8-8.9 13.8-15.3c.8-1.4 1.9-2.4 3.3-3 .6-.2 1.3-.3 2.1-.3s1.6.2 2.4.6c1.4.4 2.5 1.2 3.3 2.4.6 1 .9 2 .9 3s0 .9-.3 1.5l-4.8 30.2c-.4 2.4-1.7 4.1-3.9 5.1-.4.2-1.2.3-2.4.3h-146.1c-1.4 0-2.6-.4-3.7-1.2s-1.8-2-2.2-3.6c-.2-.8-.3-1.6-.3-2.4 0-2 1.1-3.6 3.3-4.8 2.6-1.4 5-3.4 7.2-6 2-2.4 3.6-5.1 4.8-8.2s1.8-6.1 1.8-9.1v-163.8c0-3-.6-6-1.8-9.1s-2.8-5.8-4.8-8.2c-2.2-2.6-4.6-4.6-7.2-6-2.2-1.2-3.3-2.9-3.3-5.1z"/><path d="m2038.1 323.2c-.5.2-.9.5-1.3.9h-.3c-.6.4-1.5.8-2.7 1.2l-.3.3h-.3l-1.2.6c-5.6 2.2-11.2 3.9-16.9 5.2s-11.5 2-17.5 2h-2.7c-14-.4-27.2-3.7-39.8-9.9-12.2-6-23.1-14.7-32.6-26-7.2-8.8-13.1-18.5-17.8-29.2s-7.8-22-9.4-34l-.3-1.5c-.6-6-.9-11.4-.9-16.2s0-4.7.3-6.9c.4-6.2.7-9.7.9-10.5 1.6-12.2 4.7-23.7 9.3-34.6s10.6-20.8 18-29.8c9.2-11 20.1-19.7 32.6-26.1 12.2-6.2 25.3-9.5 39.5-9.9h3.3c12.2.4 23.6 2.9 34.1 7.5 6.2 2.4 11.4 3.6 15.6 3.6s2.2 0 3.6-.3c1.4-.2 2.6-.8 3.6-1.8 1.4-1 2.8-1.5 4.2-1.5s1.7.2 2.7.6c2.4 1 3.6 2.9 3.6 5.7v29c0 1.6-.4 2.9-1.4 4-.9 1.1-2.1 1.9-3.7 2.2h-1.5c-2.6 0-4.5-1.2-5.7-3.6-1.8-4-4-7.5-6.7-10.5s-5.2-5.5-7.6-7.5-4.5-3.5-6.3-4.5-2.8-1.5-3-1.5c-7.4-3-15.7-4.7-24.8-5.1-1.4.2-2.8.3-4.2.4-1.4 0-2.8.2-4.2.4-17.4 2.8-31.4 11.4-42.2 25.8-9.8 13-16.1 29.4-18.9 49.4-.6 4-1.1 10.8-1.5 20.4-.2 2-.3 4-.3 6 0 8.2.8 17.2 2.4 26.9 3 18.4 9.1 33.5 18.3 45.5 10.8 14.4 24.8 23 42.2 25.8 2.6.6 5.4.9 8.4.9h.9c2.2-.2 5-.5 8.4-1s6.7-1.5 9.9-3.1c8.2-3.4 12.6-8.4 13.2-15v-57.2c0-.4 0-.7-.3-.9v-1.5c-.2-.4-.3-.8-.3-1.2s0-.5-.3-.9v-.3c0-.4 0-.6-.3-.6-1.8-7.4-5.8-12.8-12-16.2-2.4-1.2-3.6-3-3.6-5.4s0-1.2.3-1.8c1-3.2 3.1-4.8 6.3-4.8h59.9c3.2 0 5.3 1.6 6.3 4.8.2.6.3 1.2.3 1.8 0 2.2-1.1 4-3.3 5.4-5 2.6-8.7 6.8-11.1 12.6-.4.8-.8 2-1.2 3.6-.2 0-.3.2-.3.6v.3c-.2.4-.3.7-.3.9 0 .4-.1.8-.3 1.2v1.5c0 .2 0 .4-.1.4-.1.1-.1.2-.1.4v71.3c0 2.4-1.2 4.3-3.6 5.7-1 .4-2 .6-3 .6s-2.7-.5-3.9-1.5c-1-.8-1.9-1.3-2.9-1.5s-1.9-.3-2.8-.3c-1.6 0-3.7.4-6.3 1.2s-6.1 2.3-10.5 4.5h-.3l-.6.6c-.2 0-.3 0-.4.1s-.2.1-.4.1l-.3.3c-.8.4-1.3.6-1.5.6l-.3.3c-.4.2-.8.4-1.3.6z"/><path d="m668.5 443c-3.7 0-5.7 1.3-8.5 3.4-3.9 2.7-28.9 60-33.3 69.3h-3.2c-2.5-19.6-4.2-38.8-5.3-58.5-3.3 6.6-6.2 13.2-9.4 19.9-6.2 13.1-13 25.5-18.8 38.6h-3.2c-1.2-9.4-4.6-65.4-8-69.3-1.8-2.1-3.3-3.5-6.3-3.4l.4-2.1h25l-.3 2.1c-4.9-.1-7.5 2.3-7.5 7.2 0 17.6 2.4 34.8 2.9 52.3 9.1-20.1 19-39.5 28.3-59.6h3.3c1.3 20 3.8 39.6 5 59.6 3.3-8.4 23.5-50.8 23.5-55.9s-2.9-4-5.3-3.7l.4-2.1h20.7l-.4 2.1z"/><path d="m688.1 486.5-16.5 4.7c-.4 2.9-.5 4.8-.5 7 0 9.5 5.9 11.9 11.4 11.9s6.5-.4 19-6l1 2c-15.1 8.4-18.7 9.3-24.9 9.3s-14.5-4.2-14.5-15.5 3.8-20.6 8.3-27c3.5-4.8 16.6-11.8 22.8-11.8s12.6 4.6 12.6 9.7c0 8-5.7 11.9-18.6 15.6zm1.4-20.8c-8.1 0-14.7 7.6-17.5 22.3 7.3-2 11.1-2.9 15.7-4.8 8.8-3.4 10.8-6.2 10.8-9.8s-3.5-7.6-9-7.6z"/><path d="m760.9 514.2h-20.7l.2-2c1.5 0 2.8-.5 4-1.4 2.4-1.6 3.8-7.8 6.9-23 .8-3.5 2-9.7 2-13.1s-2.3-7.5-7.2-7.5-4.4.8-14.5 6.8l-4.7 25.1c-.5 2.6-.6 5.2-.6 8.2s2.5 4.9 7 4.9l-.3 2h-21.8l.2-2c2.1 0 3.8-.7 4.9-2.2 1.7-2.3 2.7-5.4 6.1-22.2.5-2.8 1.8-10.1 1.8-14.8s-1-4.8-4.8-5.8l.3-1.6c4.9-1.3 10.3-3.2 14.9-5.8l-2.3 10.7c12.3-8.2 14.5-9.5 18.3-9.5 6.6 0 10.2 5.2 10.2 10.4s0 2.6-.4 4.2l-4.6 23.5c-.7 3.4-1.2 6.8-1.2 9s2.3 4.1 6.8 4.1l-.3 2z"/><path d="m788 474c-2.2 12.2-4.9 22.7-4.9 34.4s3.5 3.8 6.3 3.8l-.3 2h-20.8l.3-2c1.6 0 2.7 0 4.1-.8 2.4-1.6 4.3-12.2 6-21.6 1.3-6.8 2.3-13.6 2.3-16.5s-1.2-5-4.9-6l.3-1.6c4.9-1.3 10.3-3.2 14.9-5.8-.5 2.5-1.9 6.9-3.1 14zm1.5-23.6c-2.6 0-5-2-5-5s2.7-6 6-6 5 2 5 5-2.7 6-6 6z"/><path d="m836.6 514.8c-.7 3.3-1.6 6.6-3.6 9.4-5.3 7.6-14.5 13.2-23.2 13.2s-15.4-1.4-15.4-6.3.2-2.9.6-3.3c.6-.6 6-2.4 7-2.4s.7.5.7 1.6 0 2.4 0 2.9c.5 3.3 4.6 4.3 7.5 4.3 16.6 0 18.4-11.9 20.6-27.3-8.9 7.4-11.8 8.6-17.4 8.6s-14.1-4.6-14.1-16 4.4-19.5 8.9-25.6c4.2-5.5 18-12.7 23.9-12.7s8.2.7 14.9 4.9c-5.3 15.6-7.2 32.5-10.6 48.8zm1.8-45.3c-3.5-2.6-6.3-3.9-9.6-3.9s-10.9 2.8-14.4 8.6c-3.7 5.9-6.5 14-6.5 24.6s4.7 11.4 9.7 11.4 6.7-1.5 14.2-7.3z"/><path d="m881.2 486.5-16.5 4.7c-.4 2.9-.5 4.8-.5 7 0 9.5 5.9 11.9 11.4 11.9s6.5-.4 19-6l1 2c-15.1 8.4-18.7 9.3-24.9 9.3s-14.5-4.2-14.5-15.5 3.8-20.6 8.3-27c3.5-4.8 16.6-11.8 22.8-11.8s12.6 4.6 12.6 9.7c0 8-5.7 11.9-18.6 15.6zm1.5-20.8c-8.1 0-14.7 7.6-17.5 22.3 7.3-2 11.1-2.9 15.7-4.8 8.8-3.4 10.8-6.2 10.8-9.8s-3.5-7.6-9-7.6z"/><path d="m942.8 472.1c-.4.2-3.6 1.1-3.9 1.1-1.5 0-.7-2-.7-2.9 0-1.6-.7-2.8-2.4-2.8-3.5 0-7.1 3.4-11.4 6.2-2.2 11.4-5.4 26-5.8 34.6-.3 3.7 5 3.9 7.8 3.9l-.3 2h-21.8l.3-2c1.6 0 2.8 0 4.1-.8 4.4-3 7.6-32.3 8.5-39.2.3-3.8-1.6-4-5.3-4.8l.3-1.6c5-1.4 10.7-3.2 15.2-5.8l-2.3 10.3c4.9-3.2 11.4-9.2 16.6-9.2s4.7 2.3 4.7 5.2-1.6 5.1-3.6 5.9z"/><path d="m1036.7 443c-19.6 24.9-34.7 44.1-51.2 67 4.1 1.1 7.8 1.1 13.9 1.1 15.8 0 20.6-1.4 28.3-15.7h1.9l-6.3 18.7h-49.7v-2.1c17.4-21.5 34.4-43 51.5-67-4.1-1.1-7.2-1.1-12.8-1.1-11.8 0-20.6 2.9-26 14.1h-1.9l5.8-17.2h46.6v2.1q0 0 0 0z"/><path d="m1054.4 474c-2.2 12.2-4.9 22.7-4.9 34.4s3.4 3.8 6.3 3.8l-.3 2h-20.8l.3-2c1.6 0 2.7 0 4.1-.8 2.4-1.6 4.3-12.2 6-21.6 1.3-6.8 2.3-13.6 2.3-16.5s-1.2-5-4.9-6l.3-1.6c4.9-1.3 10.3-3.2 14.9-5.8-.5 2.5-1.9 6.9-3.1 14zm1.5-23.6c-2.6 0-5-2-5-5s2.7-6 6-6 5 2 5 5-2.7 6-6 6z"/><path d="m1101.3 472.1c-.4.2-3.6 1.1-3.9 1.1-1.5 0-.7-2-.7-2.9 0-1.6-.7-2.8-2.4-2.8-3.4 0-7.1 3.4-11.4 6.2-2.2 11.4-5.4 26-5.8 34.6-.3 3.7 5 3.9 7.8 3.9l-.3 2h-21.8l.3-2c1.6 0 2.8 0 4.1-.8 4.4-3 7.6-32.3 8.5-39.2.3-3.8-1.6-4-5.3-4.8l.3-1.6c5-1.4 10.7-3.2 15.2-5.8l-2.3 10.3c4.9-3.2 11.4-9.2 16.6-9.2s4.7 2.3 4.7 5.2-1.6 5.1-3.6 5.9z"/><path d="m1116.6 499.1c-.5 2.8-.7 5.9-1.1 8.8-.3 3.4 4.1 4.3 6.6 4.3l-.2 2h-20.5l.3-2c2.1 0 3.7-.5 4.9-2.2 3.9-4.7 12.1-51.8 12.1-60.4s-.8-5-4.6-5.9l.4-1.6c5-1.4 10.3-3.1 14.8-5.6-4.9 20.8-8.6 41.7-12.8 62.6zm38.1-33.7c-8.7.5-12.6 3.9-18.3 9.6l-10.5 10.6c1.4 1.8 12.2 21.1 15.3 23.8 2.2 2 5.3 2.8 8.3 2.8l-.3 2h-14.8c-4.1-8.8-9.9-18.1-15.3-26.4 3.7-2.8 18-16.1 18-20.2s-2.7-2.2-4.1-2.2l.4-2h21.7z"/><path d="m1201.6 470.6-5.1 25.9c-.7 3.9-1.2 6.8-1.2 9s.7 4.6 2.3 4.6 2.9-.4 4.3-1.1l.5 1.7c-1.7.8-9.4 4.8-11.1 4.8-2.6 0-3.4-4.1-3.4-7.2s0-1.6 0-1.9c-8.9 6.4-13.1 9.1-17.3 9.1-6.7 0-11-3.8-11-9.7s2.4-12.7 3.6-17.9c.5-2.8 1.9-10.1 1.9-14.8s-.9-4.8-4.7-5.8l.3-1.6c4.9-1.3 10.1-3.2 14.7-5.8l-2.3 10.7-5.7 28.5c-.3 1.4 0 2.6 0 4 .3 3.2 1.7 6.2 7.1 6.2s9.3-2.8 14-6.2l2.9-15.3c.5-2.8 1.9-9.9 1.9-14.6s-.8-4.9-4.6-5.9l.3-1.6c4.9-1.3 9.9-3.2 14.6-5.8l-2.2 10.7z"/><path d="m1246 472.1c-1.4 0-1.1-2-1.1-2.8 0-3.8-4-4.6-6.9-4.6-5.3 0-12.2 3.8-12.2 9.3 0 10.1 24 11.7 24 23.7s-14.6 17.8-26 17.8-11.7-1.5-11.7-7.1 5-4.9 8.1-4.9.4 2.3.4 3.1c0 3.7 2.6 5.6 6.5 5.6 6.6 0 14.9-3.6 14.9-10.7 0-10.5-23.7-12.4-23.7-23.5s15.4-16.8 24.6-16.8 10.7 1.5 10.7 6.4-4.7 4.6-7.5 4.6z"/><path d="m1269.6 514.2-10.4 15.4-4.3.6c5.3-8.4 7.1-12.8 7.1-16.4s-1.7-5.3-3.2-5.9v-.7l13.3-3.8c.8 0 2 1 2 2.6s-.8 2.5-4.5 8.2z"/><path d="m1355.1 514.8c-.7 3.3-1.6 6.6-3.6 9.4-5.3 7.6-14.6 13.2-23.2 13.2s-15.4-1.4-15.4-6.3.2-2.9.6-3.3c.6-.6 6-2.4 7-2.4s.7.5.7 1.6 0 2.4 0 2.9c.5 3.3 4.6 4.3 7.5 4.3 16.6 0 18.4-11.9 20.6-27.3-8.9 7.4-11.8 8.6-17.4 8.6s-14.1-4.6-14.1-16 4.4-19.5 8.9-25.6c4.2-5.5 18-12.7 23.9-12.7s8.2.7 14.9 4.9c-5.3 15.6-7.2 32.5-10.6 48.8zm1.8-45.3c-3.4-2.6-6.3-3.9-9.6-3.9s-10.9 2.8-14.4 8.6c-3.7 5.9-6.5 14-6.5 24.6s4.7 11.4 9.7 11.4 6.7-1.5 14.2-7.3z"/><path d="m1394.3 447.1-9.8 52.5c-.5 2.8-1.1 6-1.1 8.9s3.8 3.7 6.3 3.7l-.3 2h-20.7l.2-2c2.1 0 3.7 0 5-1.7 3-3.9 6.8-27.6 8.1-33.5 1.7-8.5 4.2-18.7 4.2-27.4s-1.1-5-4.8-5.9l.3-1.6c5-1.4 10.5-3.1 15-5.6-.7 3.7-1.6 6.9-2.3 10.6z"/><path d="m1426.4 486.5-16.5 4.7c-.4 2.9-.5 4.8-.5 7 0 9.5 5.9 11.9 11.4 11.9s6.5-.4 18.9-6l1.1 2c-15.1 8.4-18.7 9.3-24.9 9.3s-14.4-4.2-14.4-15.5 3.8-20.6 8.3-27c3.4-4.8 16.6-11.8 22.8-11.8s12.6 4.6 12.6 9.7c0 8-5.7 11.9-18.6 15.6zm1.4-20.8c-8.1 0-14.7 7.6-17.5 22.3 7.3-2 11.1-2.9 15.7-4.8 8.8-3.4 10.8-6.2 10.8-9.8s-3.5-7.6-9-7.6z"/><path d="m1468.3 474c-2.2 12.2-4.9 22.7-4.9 34.4s3.4 3.8 6.3 3.8l-.3 2h-20.8l.3-2c1.6 0 2.7 0 4.1-.8 2.4-1.6 4.3-12.2 6-21.6 1.3-6.8 2.3-13.6 2.3-16.5s-1.2-5-4.9-6l.3-1.6c4.9-1.3 10.3-3.2 14.9-5.8-.5 2.5-1.9 6.9-3.1 14zm1.5-23.6c-2.6 0-5-2-5-5s2.7-6 6-6 5 2 5 5-2.7 6-6 6z"/><path d="m1515.7 474.8c-.4 0-.6-.2-.6-.6 0-1.1.7-2.3.7-3.7 0-2.2-3.3-4.9-7.5-4.9s-9.9 2.7-13.5 8.5c-3.8 6.3-5.6 15.7-5.6 24.5s4.8 11.3 10.7 11.3 7.8-.9 18.4-6l1.1 2c-13.7 8.7-17.6 9.5-24.3 9.5s-14.1-4.6-14.1-16 3.3-19.8 7.8-26c4.2-5.5 17.6-12.4 23.4-12.4s11.3 3.1 11.3 7.4-4 6.3-7.8 6.3z"/><path d="m1572.8 514.2h-20.8l.4-2c1.6 0 3-.6 4.2-1.4 2.5-1.7 3.9-7.8 7-23 .8-3.5 2-9.7 2-13.1s-2.8-7.5-7.8-7.5-5 .9-15.1 6.8l-4.8 25.1c-.5 2.8-1.3 6-1.3 8.9s3.8 4.2 6.4 4.2l-.3 2h-20.8l.4-2c2.1 0 3.7-.5 4.9-2.2 3.9-4.7 12.6-51.3 12.6-59.9s-.5-5.5-4.3-6.4l.3-1.6c5-1.3 9.9-3.1 14.4-5.6-2.2 11.4-4.7 22.7-6.9 34.1 12.2-8.1 14.7-9.5 18.8-9.5 6.3 0 10.7 5.2 10.7 10.4s0 2.6-.4 4.2l-4.6 23.5c-.5 2.8-1.1 5.9-1.1 8.8s3.5 4.3 6.3 4.3l-.3 2z"/><path d="m1609.4 486.5-16.5 4.7c-.4 2.9-.5 4.8-.5 7 0 9.5 5.9 11.9 11.4 11.9s6.5-.4 18.9-6l1.1 2c-15.1 8.4-18.7 9.3-24.9 9.3s-14.4-4.2-14.4-15.5 3.8-20.6 8.3-27c3.4-4.8 16.6-11.8 22.8-11.8s12.6 4.6 12.6 9.7c0 8-5.7 11.9-18.6 15.6zm1.5-20.8c-8.1 0-14.7 7.6-17.5 22.3 7.3-2 11.1-2.9 15.7-4.8 8.8-3.4 10.8-6.2 10.8-9.8s-3.5-7.6-9-7.6z"/><path d="m1723.9 514.2h-24.5l.3-2.1c3.3-.3 7.6-.7 7.6-5.3s-1.3-10.1-2-15.2c-4.5-.3-9.1-.6-13.6-.6s-9.5.3-14.2.6c-1.4 2.5-7.5 14.5-7.5 16.5 0 3 4.9 4 7.2 4l-.4 2.1h-21l.4-2.1c3.3-.3 4.7-1.3 7.1-3.5 3.9-3.9 31.8-58.1 34.8-66.1l7.3-3c.6 8.8 9.6 64.5 12.6 69.1 1.8 2.9 3 3.2 6.4 3.6l-.4 2.1zm-25.4-63.3c-6.6 12.2-12.5 24.4-18.7 36.6 4.1.4 8.3.5 12.5.5s8.6-.2 12.8-.5c-2-12.2-4-24.4-6.5-36.6z"/><path d="m1771.3 446.6c-1.6.7-3.9 1.6-5.4 1.6s-.6-.2-.6-.6c0-.9.7-1.8.7-2.9s-.9-2.4-2.5-2.4c-2.9 0-5.3 1.6-7.4 3.6-2.4 2.2-2.8 5.5-3.6 8.6l-1.8 9.1h12.6l-1.6 3.5h-11.5c-2 10.9-4.1 21.4-6.1 32.2-1.3 7-2.4 13.8-4 20.8-1.6 6.3-5.9 9-11.2 12.3-2.8 1.7-8 5-11.3 5s-4.4-2.7-4.4-5.3.1-1 .2-1.8c.5-2.7 5.2-4.1 7.6-4.1s.6.2.6.7c0 .9-.5 1.9-.5 2.8 0 1.7 1.2 2.3 2.7 2.3s5.2-1.8 6.4-3.8c2.6-4.9 6.6-25.5 7.8-31.9 1.8-9.9 3.6-19.5 5.3-29.4h-10.6l.6-3.5h10.6c.5-3.9 1.4-10.3 3.3-13.6 2.6-4.3 16.4-13.3 21.2-13.3s5.1 1.7 5.1 4.9-.3 4.3-2.4 5.1z"/><path d="m1801.9 446.6c-1.6.7-3.9 1.6-5.4 1.6s-.6-.2-.6-.6c0-.9.7-1.8.7-2.9s-.9-2.4-2.5-2.4c-2.9 0-5.3 1.6-7.4 3.6-2.4 2.2-2.8 5.5-3.6 8.6l-1.8 9.1h12.6l-1.6 3.5h-11.5c-2 10.9-4.1 21.4-6.1 32.2-1.3 7-2.4 13.8-4 20.8-1.6 6.3-5.9 9-11.2 12.3-2.8 1.7-8 5-11.3 5s-4.4-2.7-4.4-5.3.1-1 .2-1.8c.5-2.7 5.2-4.1 7.6-4.1s.6.2.6.7c0 .9-.5 1.9-.5 2.8 0 1.7 1.2 2.3 2.7 2.3s5.2-1.8 6.4-3.8c2.6-4.9 6.6-25.5 7.8-31.9 1.8-9.9 3.6-19.5 5.3-29.4h-10.6l.6-3.5h10.6c.5-3.9 1.4-10.3 3.3-13.6 2.6-4.3 16.4-13.3 21.2-13.3s5.1 1.7 5.1 4.9-.3 4.3-2.4 5.1z"/><path d="m1819.4 486.5-16.5 4.7c-.4 2.9-.5 4.8-.5 7 0 9.5 5.9 11.9 11.4 11.9s6.5-.4 18.9-6l1.1 2c-15.1 8.4-18.7 9.3-24.9 9.3s-14.4-4.2-14.4-15.5 3.8-20.6 8.3-27c3.4-4.8 16.6-11.8 22.8-11.8s12.6 4.6 12.6 9.7c0 8-5.7 11.9-18.6 15.6zm1.5-20.8c-8.1 0-14.7 7.6-17.5 22.3 7.3-2 11.1-2.9 15.7-4.8 8.8-3.4 10.8-6.2 10.8-9.8s-3.5-7.6-9-7.6z"/><path d="m1892.3 514.2h-20.7l.2-2c1.5 0 2.8-.5 4-1.4 2.4-1.6 3.8-7.8 6.9-23 .8-3.5 2-9.7 2-13.1s-2.3-7.5-7.2-7.5-4.4.8-14.6 6.8l-4.7 25.1c-.5 2.6-.6 5.2-.6 8.2s2.5 4.9 7 4.9l-.3 2h-21.8l.2-2c2.1 0 3.8-.7 4.9-2.2 1.7-2.3 2.7-5.4 6.1-22.2.5-2.8 1.8-10.1 1.8-14.8s-1.1-4.8-4.8-5.8l.3-1.6c4.9-1.3 10.3-3.2 14.9-5.8l-2.3 10.7c12.3-8.2 14.4-9.5 18.3-9.5 6.6 0 10.2 5.2 10.2 10.4s0 2.6-.4 4.2l-4.6 23.5c-.7 3.4-1.2 6.8-1.2 9s2.3 4.1 6.8 4.1l-.3 2z"/><path d="m1909.2 515.5c-3.2 0-5.4-2.3-5.4-5.3s2.9-6.7 6.6-6.7 5.4 2.3 5.4 5.3-2.9 6.7-6.6 6.7z"/></g><path d="m165.5 490.6c30.5-31.6 58.7-66 76.8-94.1 11.2-18.7 23.1-45.4 26.7-67.5 4.2-26.1-2.5-48.9-19.1-68.6-10.3-12.3-23.4-21.1-35.4-31.1-7-5.8-13.8-11.8-20.6-17.7-1.6-1.4-3-3.1-4.4-4.8-8.8-10.7-9.1-19.1-1-30.4 6.9-9.7 22.9-23.3 32.5-29.7 15.1-10 23.3-13.4 37-22.1-2.2 1.1-37.1 17.1-58.5 35.7-6 5-11.6 10.9-16.5 17.1-6.4 8.1-6.4 17.1-1.3 26.2 6.2 11.2 15.3 19.6 24.4 28 9.2 8.4 19 16.2 27.7 25.1 20.7 21.2 21.2 40.4 15.8 62.8-7.1 24.1-19.1 43.7-37.8 64.7-21.8 26.1-69.9 71.8-73.5 75.3-5.1-5.5-56.3-57-80.7-83.9-31.8-35.1-50.6-77.4-56-125.9-6.9-62.1 7.9-118.1 45-166.9 33.6-44.3 77.3-71.4 130.3-79.9 64.2-10.4 121.8 7 171.1 52.1 39.7 36.4 63.4 82.8 69.9 138 8.6 73.4-12.5 136.7-61.8 189.2-41.6 44.3-83.4 88.5-125.1 132.7-12.2 13-29.4 13.1-41.8.2-7.6-8-15.6-16.2-23.6-24.5zm133.8-389.4c-38.4-28.1-80.6-35.5-123.1-28.7-77.6 18.9-126.3 102.5-108 184.8 9.3 41.9 40.9 89.9 75.1 112.8 2.5 1.7 36.7-36.6 45.7-49.3 9.3-13.2 11.3-25.4 2.6-39-5.1-8-11.5-15.2-17.6-22.5-9.5-11.2-19.9-21.6-28.8-33.4-11.8-15.7-10.7-32 1.5-47.3 8.4-10.5 19-18.1 30.1-24.9 26.3-16.1 54.4-27.7 82.9-38.4 13-4.8 26.2-9.5 39.6-14.3zm33.1 203.4c36.5-55.7 30.9-147.4-28.6-199.4-17 10-34.6 19.8-51.7 30.6-11.3 7.1-21.8 15.6-29.3 27.5-6.8 10.8-6.6 21.4.7 31.9 6.1 8.8 14.2 15.4 22.7 21.6 16.6 12.1 33.5 23.7 49.8 36.3 12.5 9.6 23.5 21 30.5 36 2.4 5 4 10.5 6 15.7z" fill="url(#a)"/></svg>