<?xml version="1.0" encoding="UTF-8"?>
<svg id="Layer_1" data-name="Layer 1" xmlns="http://www.w3.org/2000/svg" xmlns:xlink="http://www.w3.org/1999/xlink" viewBox="0 0 419.62 524.71">
  <defs>
    <style>
      .cls-1 {
        fill: url(#linear-gradient);
      }
    </style>
    <linearGradient id="linear-gradient" x1="67.55" y1="368.46" x2="343.01" y2="93" gradientUnits="userSpaceOnUse">
      <stop offset="0" stop-color="#f5dcea"/>
      <stop offset=".9" stop-color="#a13d8e"/>
    </linearGradient>
  </defs>
  <path class="cls-1" d="M165.5,490.63c30.53-31.57,58.73-66.01,76.84-94.08,11.24-18.66,23.15-45.35,26.68-67.47,4.17-26.11-2.51-48.91-19.08-68.64-10.32-12.3-23.35-21.06-35.44-31.08-6.96-5.77-13.78-11.75-20.59-17.73-1.6-1.4-2.99-3.1-4.36-4.76-8.83-10.72-9.14-19.07-1-30.43,6.93-9.67,22.92-23.32,32.53-29.7,15.07-10.01,23.27-13.43,36.95-22.11-2.23,1.12-37.05,17.15-58.48,35.71-6.02,5.03-11.57,10.91-16.5,17.15-6.36,8.06-6.36,17.12-1.3,26.17,6.25,11.19,15.33,19.61,24.44,27.96,9.2,8.44,18.98,16.21,27.72,25.14,20.74,21.19,21.23,40.42,15.83,62.76-7.07,24.08-19.13,43.69-37.83,64.71-21.82,26.12-69.89,71.75-73.5,75.31-5.06-5.53-56.28-57.05-80.65-83.9C25.84,340.46,7,298.25,1.63,249.72c-6.87-62.13,7.94-118.09,44.97-166.91C80.21,38.51,123.91,11.44,176.85,2.9c64.24-10.36,121.83,6.99,171.06,52.13,39.67,36.37,63.41,82.81,69.85,137.99,8.56,73.43-12.5,136.73-61.82,189.23-41.63,44.31-83.43,88.45-125.14,132.67-12.23,12.97-29.45,13.06-41.75.21-7.6-7.95-15.61-16.24-23.55-24.5ZM299.31,101.18c-38.36-28.11-80.59-35.53-123.14-28.67-77.62,18.89-126.35,102.47-108.01,184.79,9.33,41.88,40.88,89.87,75.09,112.84,2.48,1.66,36.69-36.58,45.7-49.34,9.29-13.16,11.29-25.37,2.62-38.95-5.12-8.03-11.5-15.21-17.63-22.46-9.5-11.23-19.94-21.64-28.78-33.42-11.8-15.72-10.71-32.01,1.53-47.27,8.42-10.49,19.02-18.05,30.1-24.86,26.26-16.14,54.43-27.72,82.95-38.39,12.96-4.85,26.22-9.46,39.57-14.27ZM332.41,304.59c36.49-55.72,30.85-147.35-28.65-199.42-17.03,9.99-34.64,19.8-51.73,30.55-11.3,7.11-21.83,15.6-29.31,27.49-6.82,10.84-6.57,21.39.73,31.89,6.15,8.83,14.25,15.41,22.66,21.57,16.58,12.13,33.51,23.73,49.8,36.27,12.49,9.61,23.51,21.04,30.54,35.98,2.38,5.05,4.01,10.49,5.96,15.68Z"/>
</svg>